<svg width="32" height="32" viewBox="0 0 32 32" fill="none" xmlns="http://www.w3.org/2000/svg">
<path d="M15.9811 20C15.763 20.0002 15.5474 19.9633 15.3487 19.8917C15.1499 19.8201 14.9726 19.7155 14.8285 19.5849L8.28807 13.6493C8.08135 13.4526 7.97922 13.1991 8.00352 12.9431C8.02782 12.6871 8.17662 12.4488 8.4181 12.2792C8.65958 12.1097 8.97457 12.0223 9.29573 12.0357C9.61688 12.0491 9.91871 12.1624 10.1367 12.3512L15.8558 17.5416C15.8714 17.5558 15.8907 17.5672 15.9123 17.5751C15.9339 17.5829 15.9574 17.5869 15.9811 17.5869C16.0048 17.5869 16.0283 17.5829 16.0499 17.5751C16.0715 17.5672 16.0908 17.5558 16.1064 17.5416L21.8255 12.3512C21.931 12.2508 22.0605 12.1683 22.2065 12.1084C22.3525 12.0486 22.5121 12.0127 22.6757 12.0028C22.8393 11.9929 23.0038 12.0092 23.1594 12.0508C23.315 12.0924 23.4587 12.1584 23.5819 12.2449C23.7051 12.3314 23.8054 12.4368 23.877 12.5547C23.9485 12.6726 23.9897 12.8008 23.9983 12.9316C24.0069 13.0624 23.9826 13.1933 23.927 13.3166C23.8713 13.4398 23.7853 13.553 23.6741 13.6493L17.1357 19.5827C16.9913 19.7137 16.8137 19.8186 16.6147 19.8906C16.4156 19.9625 16.1996 19.9998 15.9811 20Z" fill="black"/>
</svg>
