<svg width="62" height="32" viewBox="0 0 62 32" fill="none" xmlns="http://www.w3.org/2000/svg">
<g clip-path="url(#clip0_301_9345)">
<path fill-rule="evenodd" clip-rule="evenodd" d="M57.9028 32C60.2898 32 62 29.995 62 27.8319C62 26.2189 61.0857 25 59.1365 25C56.6703 25 55 27.1244 55 29.2476C55 31.0173 56.3121 32 57.9028 32ZM25.4926 13.5011C26.1044 13.2823 26.629 13.1078 27.1102 13.3705C27.5906 13.6325 27.5906 14.3758 27.2856 15.7318L24.8369 27.1461C24.6612 27.933 24.6176 28.5891 24.6176 29.1576C24.6176 30.6018 25.5797 31.9568 27.4604 31.9568C30.5216 31.9568 33.1887 29.7703 35.0686 27.0584L34.0629 26.0967C34.0629 26.0967 32.5326 27.6267 31.1761 27.6267C30.6082 27.6267 30.2589 27.3212 30.5216 26.2716L32.9259 15.9498C33.2322 14.5943 33.4946 13.7191 33.4946 12.8897C33.4946 12.1016 33.2322 10.0899 30.6961 10.0899C28.7279 10.0899 26.8478 11.0086 25.3177 13.2387L25.4926 13.5011ZM31.789 6.86631C33.757 6.86631 35.2439 5.42373 35.4176 3.58602C35.5937 1.70502 34.1942 0 32.3572 0C30.4773 0 28.9032 1.44258 28.7279 3.32368C28.5533 5.29146 29.9526 6.86631 31.789 6.86631ZM52.3847 26.9278C51.7717 28.1084 48.7984 31.9568 43.6823 31.9568C38.7852 31.9568 36.3368 28.4579 36.3368 23.9091C36.3368 20.018 38.2169 15.7317 41.1463 13.1957C43.9443 10.7449 46.4816 10.09 49.0604 10.09C52.9522 10.09 54.527 12.2327 54.527 14.3758C54.527 16.0811 53.3454 18.1804 50.9843 18.1804C49.6738 18.1804 48.6232 17.4807 48.1428 16.0811C48.7549 15.5568 48.9737 14.7257 48.9737 13.9816C48.9737 13.3267 48.4486 12.4947 47.4001 12.4947C44.6443 12.4947 41.8459 15.9066 41.8459 21.6799C41.8459 24.7843 43.4639 27.4521 46.6121 27.4521C48.2298 27.4521 49.9344 27.1462 51.5533 25.8777L52.3847 26.9278ZM22.2561 26.0967C22.2561 26.0967 20.8572 27.7153 19.371 27.7153C18.7588 27.7153 18.4522 27.1894 18.6714 26.2273L21.9063 11.2706C21.5134 10.9646 18.7145 10.0899 15.304 10.0899C11.4561 10.0899 7.74011 11.2266 4.4605 14.9441C1.04989 18.8369 0 23.2098 0 25.7895C0 29.0261 1.39926 31.9568 4.72237 31.9568C8.04589 31.9568 11.9377 29.0261 14.5604 22.423L14.6922 22.4665C14.6922 22.4665 12.7683 27.0153 12.7683 29.2446C12.7683 30.5578 13.1173 31.9568 15.2609 31.9568C18.1467 31.9568 21.3824 29.7703 23.2624 27.0584L22.2561 26.0967ZM14.9977 16.7374C14.3856 19.5362 14.0357 20.6729 13.0302 22.6849C12.0244 24.6537 10.3196 27.0584 8.17688 27.0584C6.16512 27.0584 5.59737 25.6162 5.59737 23.6037C5.59737 19.0554 9.66438 12.2762 13.7302 12.2762C14.7801 12.2762 15.4357 12.4946 15.8291 12.9755L14.9977 16.7374Z" fill="black"/>
</g>
<defs>
<clipPath id="clip0_301_9345">
<rect width="62" height="32" fill="white"/>
</clipPath>
</defs>
</svg>
