<svg width="145" height="48" viewBox="0 0 145 48" fill="none" xmlns="http://www.w3.org/2000/svg">
<g clip-path="url(#clip0_301_9327)">
<mask id="mask0_301_9327" style="mask-type:luminance" maskUnits="userSpaceOnUse" x="0" y="0" width="145" height="48">
<path d="M145 0H0V48H145V0Z" fill="white"/>
</mask>
<g mask="url(#mask0_301_9327)">
<path d="M44.0918 10.6556C44.0918 7.66194 45.0114 5.17568 46.9019 3.19682C48.7923 1.21797 51.2958 0.253906 54.3613 0.253906C56.2517 0.253906 57.7334 0.507606 58.8064 0.964266C59.9304 1.47167 60.4924 2.13128 60.4924 3.0446C60.4924 3.39978 60.3902 3.75496 60.1859 4.16088C59.7771 4.87124 59.2151 5.17568 58.3976 5.17568C58.0911 5.17568 57.7334 5.0742 57.2736 4.92198C56.5583 4.66828 55.7919 4.5668 54.8723 4.5668C53.084 4.5668 51.6534 5.0742 50.5805 6.13974C49.5076 7.20528 48.9455 8.72748 48.9455 10.6556C48.9455 12.533 49.5076 14.0044 50.5805 15.1207C51.6534 16.237 53.1351 16.7951 54.9233 16.7951C55.4854 16.7951 56.0985 16.6937 56.7627 16.4907C57.4269 16.2877 57.8867 16.034 58.1422 15.7803V13.5985H55.9963C55.3832 13.5985 54.8722 13.3956 54.4635 12.9896C54.0548 12.5837 53.8504 12.0763 53.8504 11.4674C53.8504 10.8586 54.0548 10.3512 54.4635 9.94524C54.8722 9.53932 55.3832 9.33636 55.9963 9.33636H60.3391C60.9522 9.33636 61.4632 9.53932 61.8719 9.94524C62.2806 10.3512 62.485 10.8586 62.485 11.4674V16.7444C62.485 17.9622 61.9741 18.8755 60.9011 19.5351C59.0107 20.6514 57.0181 21.1588 54.8723 21.1588C51.4491 21.1588 48.7923 20.1947 46.8508 18.3173C45.0625 16.3892 44.0918 13.8522 44.0918 10.6556Z" fill="#1A1628"/>
<path d="M67.9017 7.6112C68.7703 7.6112 69.4345 8.01712 69.9454 8.77822C70.7629 7.91564 71.5293 7.45898 72.3468 7.45898C72.9599 7.45898 73.4708 7.66194 73.8284 8.01712C74.1861 8.3723 74.3394 8.8797 74.3394 9.43784C74.3394 9.69154 74.2883 9.8945 74.2372 10.1482C73.9306 11.2645 73.2153 11.7719 72.0402 11.7719C71.7848 11.7719 71.5804 11.7719 71.5293 11.7211C71.4782 11.7211 71.3249 11.6704 71.1206 11.6704C70.9673 11.6704 70.814 11.6704 70.6607 11.7211C70.5074 11.7719 70.4053 11.8226 70.3542 11.9241C70.252 12.0256 70.2009 12.0763 70.2009 12.1778C70.1498 12.2285 70.0987 12.33 70.0987 12.4822L70.0476 12.7359V18.977C70.0476 19.5351 69.8432 19.9918 69.4345 20.3977C69.0258 20.8036 68.5148 21.0066 67.9017 21.0066C67.2886 21.0066 66.7777 20.8036 66.369 20.3977C65.9602 19.9918 65.7559 19.5351 65.7559 18.977V9.79302C65.7559 9.18414 65.9602 8.67674 66.369 8.27082C66.6244 7.81416 67.1864 7.6112 67.9017 7.6112Z" fill="#1A1628"/>
<path d="M88.0314 19.1291C86.703 20.3976 84.9658 21.0572 82.7689 21.0572C80.5719 21.0572 78.8347 20.3976 77.5063 19.1291C76.1779 17.8099 75.5137 16.1862 75.5137 14.2073C75.5137 12.2285 76.1779 10.6048 77.5063 9.28554C78.7837 8.01704 80.5719 7.35742 82.7689 7.35742C84.9658 7.35742 86.7541 8.01704 88.0314 9.28554C89.3598 10.6048 90.024 12.2285 90.024 14.2073C90.024 16.1862 89.3598 17.8606 88.0314 19.1291ZM84.6082 12.2285C84.2505 11.8225 83.7907 11.5688 83.2798 11.5181C82.7689 11.4166 82.2579 11.4674 81.747 11.6703C81.2872 11.8733 80.8784 12.1777 80.5719 12.6344C80.2653 13.091 80.1121 13.6492 80.1631 14.2581C80.1631 15.0699 80.4186 15.7295 80.8784 16.2369C81.3894 16.7443 82.0025 17.0488 82.7689 17.0488C83.5352 17.0488 84.1483 16.7951 84.6593 16.2877C85.1191 15.7803 85.3746 15.1206 85.3746 14.2581C85.3746 13.4462 85.1191 12.7866 84.6082 12.2285Z" fill="#1A1628"/>
<path d="M103.717 9.48871L105.25 13.7001C105.352 14.0553 105.506 14.6134 105.659 15.3745C105.761 14.6642 105.863 14.0553 105.966 13.5986L107.038 9.18427C107.141 8.72761 107.396 8.37243 107.754 8.06799C108.111 7.76355 108.571 7.61133 109.031 7.61133C109.593 7.61133 110.104 7.81429 110.462 8.22021C110.87 8.62613 111.024 9.08279 111.024 9.64093C111.024 9.84389 110.973 10.0468 110.921 10.2498L108.162 19.18C107.754 20.4485 106.936 21.0574 105.659 21.0574C104.433 21.0574 103.564 20.4485 103.104 19.2308L101.367 14.8164C101.316 14.7149 101.214 14.2583 101.01 13.3449C100.907 14.0046 100.754 14.512 100.601 14.8671L98.8637 19.2308C98.4039 20.4485 97.5864 21.0574 96.4113 21.0574C95.2361 21.0574 94.4187 20.4485 94.0099 19.18L91.1998 10.5035C91.0977 10.3513 91.0977 10.0976 91.0977 9.79315C91.0977 9.23501 91.302 8.72761 91.7108 8.27095C92.1195 7.81429 92.6815 7.61133 93.2946 7.61133C93.7545 7.61133 94.2143 7.76355 94.5719 8.06799C94.9296 8.37243 95.185 8.72761 95.2872 9.18427L96.5134 13.7001C96.5645 13.8016 96.6667 14.3597 96.82 15.3238C96.9222 14.5627 97.0755 14.0046 97.1776 13.7001L98.6082 9.48871C99.017 8.27095 99.8344 7.66207 101.061 7.66207C102.491 7.61133 103.309 8.22021 103.717 9.48871Z" fill="#1A1628"/>
<path d="M113.016 15.7794V5.88507C113.016 5.32693 113.22 4.87027 113.629 4.46435C114.037 4.05843 114.548 3.85547 115.161 3.85547C115.775 3.85547 116.286 4.05843 116.694 4.46435C117.103 4.87027 117.307 5.32693 117.307 5.88507V7.76245H118.891C119.453 7.76245 119.913 7.9654 120.322 8.37132C120.731 8.77724 120.935 9.2339 120.935 9.79204C120.935 10.3502 120.731 10.8068 120.322 11.2128C119.913 11.6187 119.453 11.8216 118.891 11.8216H117.307V15.5764C117.307 16.5405 117.563 16.9971 118.125 16.9971C118.278 16.9971 118.482 16.9971 118.738 16.9464C118.789 16.9464 118.891 16.9464 118.942 16.9464C119.044 16.9464 119.096 16.9464 119.147 16.8956C119.198 16.8956 119.249 16.8956 119.249 16.8956C119.964 16.8956 120.475 17.2508 120.833 18.0119C120.935 18.2656 120.986 18.5193 120.986 18.773C120.986 19.5849 120.577 20.143 119.76 20.4982C118.891 20.9041 117.972 21.0563 117.001 21.0563C115.57 21.0563 114.548 20.5997 113.935 19.7371C113.322 18.8745 113.016 17.5553 113.016 15.7794Z" fill="#1A1628"/>
<path d="M132.481 18.977V13.6493C132.481 13.0404 132.277 12.4822 131.919 12.1271C131.511 11.7211 131.051 11.5689 130.387 11.5689C129.569 11.5689 128.854 11.8226 128.292 12.3808V18.977C128.292 19.5351 128.087 19.9917 127.679 20.3977C127.27 20.8036 126.759 21.0065 126.146 21.0065C125.533 21.0065 125.022 20.8036 124.613 20.3977C124.204 19.9917 124 19.5351 124 18.977V2.2835C124 1.72536 124.204 1.26871 124.613 0.862786C125.022 0.456866 125.533 0.253906 126.146 0.253906C126.759 0.253906 127.27 0.456866 127.679 0.862786C128.087 1.26871 128.292 1.72536 128.292 2.2835V8.626C129.109 7.8649 130.182 7.50972 131.511 7.50972C133.197 7.50972 134.474 7.96638 135.445 8.93044C136.364 9.84376 136.824 11.2645 136.824 13.1419V19.0277C136.824 19.5858 136.62 20.0425 136.211 20.4484C135.802 20.8543 135.291 21.0573 134.678 21.0573C134.065 21.0573 133.554 20.8543 133.146 20.4484C132.686 20.0425 132.481 19.5351 132.481 18.977Z" fill="#1A1628"/>
<path d="M142.291 15.2734C143.058 15.2734 143.671 15.5271 144.233 16.0853C144.744 16.6434 145.05 17.2523 145.05 17.9627C145.05 18.7745 144.795 19.4849 144.284 20.043C143.773 20.6011 143.109 20.9056 142.342 20.9056C141.474 20.9056 140.758 20.6011 140.196 20.043C139.634 19.4849 139.379 18.7745 139.379 17.9627C139.379 17.2523 139.634 16.6434 140.196 16.0853C140.707 15.5271 141.423 15.2734 142.291 15.2734Z" fill="#1A1628"/>
<path d="M46.4417 29.1268C47.3103 29.1268 47.9745 29.482 48.4343 30.2431C49.354 29.3805 50.5291 28.9238 52.0619 28.9238C53.799 28.9238 55.2296 29.5327 56.3025 30.7505C57.3755 31.9682 57.8864 33.5919 57.8864 35.52C57.8864 37.5496 57.2222 39.224 55.9449 40.5433C54.6676 41.8625 52.9815 42.5729 50.8867 42.5729C49.916 42.5729 49.0985 42.4207 48.4343 42.167V45.9725C48.4343 46.5306 48.2299 46.9873 47.8212 47.3932C47.4125 47.7991 46.9015 48.0021 46.2884 48.0021C45.6753 48.0021 45.1644 47.7991 44.7557 47.3932C44.3469 46.9873 44.1426 46.5306 44.1426 45.9725V31.2579C44.1426 30.649 44.3469 30.1416 44.8068 29.7357C45.2155 29.3297 45.7775 29.1268 46.4417 29.1268ZM48.4343 34.0993V38.057C48.9963 38.3615 49.6605 38.5644 50.478 38.5644C51.3466 38.5644 52.0619 38.3107 52.5217 37.7526C52.9815 37.2452 53.237 36.5348 53.237 35.6215C53.237 34.8097 53.0326 34.15 52.5728 33.6934C52.113 33.186 51.4998 32.983 50.6824 32.983C49.8649 32.983 49.1496 33.3382 48.4343 34.0993Z" fill="#1A1628"/>
<path d="M66.7265 28.9238C68.4637 28.9238 69.9453 29.482 71.1716 30.5982C72.3978 31.7653 73.0109 33.2367 73.0109 35.0126V35.5708C73.0109 36.0782 72.8576 36.4841 72.5 36.7378C72.1423 36.9915 71.7847 37.1437 71.3248 37.1437H64.1208C64.5296 38.3107 65.5003 38.9196 67.1864 38.9196C67.7484 38.9196 68.3615 38.8181 69.0257 38.6152C69.23 38.5644 69.4344 38.5137 69.5877 38.5137C70.3541 38.5137 70.865 38.8689 71.1205 39.5285C71.2226 39.6807 71.2226 39.8837 71.2226 40.1374C71.2226 40.8985 70.8139 41.5073 70.0475 41.8625C69.2811 42.2684 68.1571 42.4714 66.7265 42.4714C64.5806 42.4714 62.8946 41.8625 61.6173 40.594C60.34 39.3763 59.6758 37.7018 59.6758 35.6215C59.6758 33.6934 60.34 32.0697 61.6684 30.7505C62.8946 29.5834 64.6317 28.9238 66.7265 28.9238ZM63.9675 34.3023H68.668C68.668 33.7949 68.4637 33.3889 68.106 33.0338C67.6973 32.6786 67.1864 32.5264 66.5732 32.5264C65.2959 32.5264 64.4274 33.1352 63.9675 34.3023Z" fill="#1A1628"/>
<path d="M74.9004 37.295V27.4007C74.9004 26.8426 75.1047 26.3859 75.5135 25.98C75.9222 25.5741 76.4331 25.3711 77.0462 25.3711C77.6594 25.3711 78.1703 25.5741 78.579 25.98C78.9878 26.3859 79.1921 26.8426 79.1921 27.4007V29.2781H80.776C81.338 29.2781 81.7978 29.481 82.2066 29.887C82.6153 30.2929 82.8197 30.7495 82.8197 31.3077C82.8197 31.8658 82.6153 32.3225 82.2066 32.7284C81.7978 33.1343 81.338 33.3373 80.776 33.3373H79.1921V37.0413C79.1921 38.0053 79.4476 38.462 80.0096 38.462C80.1629 38.462 80.3672 38.462 80.6227 38.4113C80.6738 38.4113 80.776 38.4113 80.8271 38.4113C80.9293 38.4113 80.9804 38.4113 81.0314 38.3605C81.0825 38.3605 81.1336 38.3605 81.1336 38.3605C81.8489 38.3605 82.3598 38.7157 82.7175 39.4768C82.8197 39.7305 82.8708 39.9842 82.8708 40.2379C82.8708 41.0497 82.462 41.6079 81.6446 41.9631C80.776 42.369 79.8563 42.5212 78.8856 42.5212C77.455 42.5212 76.4331 42.0645 75.82 41.202C75.258 40.3901 74.9004 39.0709 74.9004 37.295Z" fill="#1A1628"/>
<path d="M29.639 7.50192C31.6986 7.01894 32.974 4.9693 32.4876 2.9239C32.0013 0.878509 29.9374 -0.38808 27.8778 0.0948947C25.8182 0.57787 24.5429 2.62752 25.0292 4.67291C25.5155 6.7183 27.5794 7.98489 29.639 7.50192Z" fill="#6366F1"/>
<path d="M14.6623 47.999C10.2173 47.999 5.97666 46.9842 2.04255 45.0561C0.254319 44.1427 -0.460972 42.0117 0.407597 40.2358C1.32726 38.4599 3.47313 37.7495 5.26136 38.6121C8.17363 40.0835 11.3413 40.7939 14.6623 40.7939C17.8811 40.7939 20.9978 40.0835 23.8589 38.7136C25.6472 37.851 27.8441 38.6121 28.7127 40.388C29.5813 42.1639 28.8149 44.3457 27.0267 45.2083C23.1437 47.0349 18.9541 47.999 14.6623 47.999Z" fill="#6366F1"/>
<path d="M14.5086 33.6918C6.64044 33.6918 0.253906 27.3493 0.253906 19.5861C0.253906 11.7722 6.64044 5.42969 14.5086 5.42969C22.3769 5.42969 28.7634 11.7722 28.7634 19.5861C28.7634 27.3493 22.3769 33.6918 14.5086 33.6918ZM14.5086 12.6348C10.6767 12.6348 7.50901 15.7299 7.50901 19.5861C7.50901 23.3916 10.6256 26.5375 14.5086 26.5375C18.3917 26.5375 21.5083 23.4424 21.5083 19.5861C21.5083 15.7299 18.3406 12.6348 14.5086 12.6348Z" fill="#1A1628"/>
</g>
</g>
<defs>
<clipPath id="clip0_301_9327">
<rect width="145" height="48" fill="white"/>
</clipPath>
</defs>
</svg>
